<svg width="40" height="41" viewBox="0 0 50 51" fill="none" xmlns="http://www.w3.org/2000/svg">
<circle opacity="0.1" cx="25" cy="25.8633" r="25" fill="#1254FF"/>
<path d="M32.1111 33.8633H17.8889C17.6531 33.8633 17.427 33.779 17.2603 33.629C17.0937 33.4789 17 33.2755 17 33.0633V18.6633C17 18.4511 17.0937 18.2476 17.2603 18.0976C17.427 17.9476 17.6531 17.8633 17.8889 17.8633H32.1111C32.3469 17.8633 32.573 17.9476 32.7397 18.0976C32.9064 18.2476 33 18.4511 33 18.6633V33.0633C33 33.2755 32.9064 33.4789 32.7397 33.629C32.573 33.779 32.3469 33.8633 32.1111 33.8633ZM20.5556 19.4633H18.7778V32.2633H31.2222V19.4633H26.7778V26.6633L23.6667 25.0633L20.5556 26.6633V19.4633Z" fill="#1254FF"/>
</svg>
